<svg width="256" height="256" viewBox="0 0 256 256" fill="none" xmlns="http://www.w3.org/2000/svg">
  <rect width="256" height="256" rx="56" fill="#08111D"/>
  <rect x="22" y="22" width="212" height="212" rx="44" fill="url(#paint0_linear)" fill-opacity="0.12" stroke="#19E2FF" stroke-opacity="0.24"/>
  <path d="M77 93C77 77.536 89.536 65 105 65H152C167.464 65 180 77.536 180 93V100H155V95C155 89.4772 150.523 85 145 85H112C106.477 85 102 89.4772 102 95V100C102 104.971 105.634 109.194 110.554 109.934L147.446 115.466C164.632 118.043 177 132.803 177 150.181V161C177 176.464 164.464 189 149 189H100C84.536 189 72 176.464 72 161V153H97V159C97 164.523 101.477 169 107 169H142C147.523 169 152 164.523 152 159V153.979C152 149.009 148.366 144.786 143.446 144.046L106.554 138.514C89.3677 135.937 77 121.177 77 103.799V93Z" fill="url(#paint1_linear)"/>
  <circle cx="186" cy="69" r="10" fill="#19E2FF"/>
  <defs>
    <linearGradient id="paint0_linear" x1="38" y1="36" x2="226" y2="228" gradientUnits="userSpaceOnUse">
      <stop stop-color="#19E2FF"/>
      <stop offset="1" stop-color="#2F7CFF"/>
    </linearGradient>
    <linearGradient id="paint1_linear" x1="72" y1="65" x2="190" y2="191" gradientUnits="userSpaceOnUse">
      <stop stop-color="#19E2FF"/>
      <stop offset="1" stop-color="#2F7CFF"/>
    </linearGradient>
  </defs>
</svg>
